<svg xmlns="http://www.w3.org/2000/svg" viewBox="0 0 55 55"><path d="M28.05 38a21 21 0 01-3.1-.23c-.68.84-3.63 3.72-6.77 4.23h-.26a.9.9 0 01-.9-.91.84.84 0 01.07-.35c.59-1 1.93-3 1.93-4.76v-.07c-4.24-2.17-7-5.82-7-10 0-6.64 7.19-12 16.05-12s16.05 5.39 16.05 12S36.91 38 28.05 38zm0-22.07c-7.74 0-14 4.5-14 10 0 3.22 2.22 6.28 5.93 8.17A2 2 0 0121 35.9v.19a7.9 7.9 0 01-.69 2.91 13.64 13.64 0 003.09-2.55 2 2 0 011.6-.7 1.51 1.51 0 01.3 0 19 19 0 002.8.2c7.74 0 14-4.5 14-10s-6.31-10.04-14.05-10.04zm0 4c-5.34 0-10 2.82-10 6a.51.51 0 01-.5.51.5.5 0 01-.5-.51c0-3.8 5.05-7 11-7a.5.5 0 01.5.5.5.5 0 01-.5.49z" fill="#666d89" fill-rule="evenodd"/></svg>