<svg id="Star" xmlns="http://www.w3.org/2000/svg" viewBox="0 0 55 55"><defs><style>.cls-1{fill:#666d89;fill-rule:evenodd;}</style></defs><title>bubble</title><path id="bubble" class="cls-1" d="M28.05,38a21,21,0,0,1-3.1-.23c-.68.84-3.63,3.72-6.77,4.23h-.26a.9.9,0,0,1-.9-.91.84.84,0,0,1,.07-.35h0c.59-1,1.93-3,1.93-4.76,0,0,0,0,0-.07-4.24-2.17-7-5.82-7-10,0-6.64,7.19-12,16.05-12s16.05,5.39,16.05,12S36.91,38,28.05,38Zm0-22.07c-7.74,0-14,4.5-14,10,0,3.22,2.22,6.28,5.93,8.17A2,2,0,0,1,21,35.9c0,.06,0,.12,0,.19A7.9,7.9,0,0,1,20.31,39a13.64,13.64,0,0,0,3.09-2.55A2,2,0,0,1,25,35.75a1.51,1.51,0,0,1,.3,0,19,19,0,0,0,2.8.2c7.74,0,14-4.5,14-10S35.79,15.91,28.05,15.91Zm0,4c-5.34,0-10,2.82-10,6a.51.51,0,0,1-.5.51.5.5,0,0,1-.5-.51c0-3.8,5.05-7,11-7a.5.5,0,0,1,.5.5A.5.5,0,0,1,28.05,19.92Z"/></svg>