<?xml-stylesheet type="text/css" href="../../style.css" ?><svg data-name="Layer 1" xmlns="http://www.w3.org/2000/svg" viewBox="0 0 30 30"><path class="google-icon" d="M9.08 11.74a2.63 2.63 0 001.09 2.37 3.18 3.18 0 001.65.44H12a2.11 2.11 0 00.46 1.45c-1 0-4.06.2-4.06 2.75s2.85 2.73 3.42 2.73H12a5.28 5.28 0 002.2-.48 3 3 0 001.73-2.87 3.53 3.53 0 00-1.53-2.65c-.4-.35-.74-.64-.74-.94s.25-.51.56-.8a2.84 2.84 0 001-2.32c0-1.08-.14-1.8-1-2.26a2.67 2.67 0 01.57-.1c.46-.07 1.15-.14 1.15-.52v-.05h-3.4s-3.46.13-3.46 3.25zm5.49 6.66c.06 1-.83 1.81-2.16 1.91s-2.48-.52-2.54-1.55a1.73 1.73 0 01.62-1.38 2.77 2.77 0 011.68-.69h.23a2 2 0 012.17 1.71zm-.89-7.4c.33 1.17-.17 2.4-1 2.62a1 1 0 01-.29 0c-.73 0-1.46-.74-1.73-1.77a2.58 2.58 0 010-1.56 1.34 1.34 0 01.86-.9.92.92 0 01.29 0c.94.03 1.52.39 1.87 1.61zm5.73 2.55v-2.19H18v2.22h-2.22V15H18v2.2h1.41V15h2.21v-1.42z"/></svg>