<?xml-stylesheet type="text/css" href="../../style.css" ?>
<svg id="Layer_1" data-name="Layer 1" xmlns="http://www.w3.org/2000/svg" viewBox="0 0 30 30"><defs></defs><title>Google</title><path id="Google" class="google-icon" d="M9.08,11.74a2.63,2.63,0,0,0,1.09,2.37,3.18,3.18,0,0,0,1.65.44H12A2.11,2.11,0,0,0,12.46,16h0c-1,0-4.06.2-4.06,2.75s2.85,2.73,3.42,2.73H12a5.28,5.28,0,0,0,2.2-.48,3,3,0,0,0,1.73-2.87,3.53,3.53,0,0,0-1.53-2.65c-.4-.35-.74-.64-.74-.94s.25-.51.56-.8a2.84,2.84,0,0,0,1-2.32c0-1.08-.14-1.8-1-2.26a2.67,2.67,0,0,1,.57-.1c.46-.07,1.15-.14,1.15-.52V8.49h-3.4S9.08,8.62,9.08,11.74Zm5.49,6.66c.06,1-.83,1.81-2.16,1.91s-2.48-.52-2.54-1.55a1.73,1.73,0,0,1,.62-1.38,2.77,2.77,0,0,1,1.68-.69h.23A2,2,0,0,1,14.57,18.4ZM13.68,11c.33,1.17-.17,2.4-1,2.62a1,1,0,0,1-.29,0c-.73,0-1.46-.74-1.73-1.77a2.58,2.58,0,0,1,0-1.56,1.34,1.34,0,0,1,.86-.9.92.92,0,0,1,.29,0C12.75,9.42,13.33,9.78,13.68,11Zm5.73,2.55V11.36H18v2.22H15.78V15H18V17.2h1.41V15h2.21V13.58Z"/></svg>