<svg xmlns="http://www.w3.org/2000/svg" viewBox="0 0 55 55"><path d="M41.44 30.19L30.38 41.12a3.06 3.06 0 01-4.29 0L15 30.19a9.42 9.42 0 010-13.41 9.65 9.65 0 0113.21-.28 9.64 9.64 0 0113.2.28 9.4 9.4 0 01.03 13.41zm-1.44-12A7.61 7.61 0 0029.59 18l-1.35 1.22L26.88 18a7.61 7.61 0 00-10.42.22 7.44 7.44 0 000 10.59l11.06 10.9a1 1 0 001.43 0L40 28.78a7.42 7.42 0 000-10.59zM21.48 20a3.24 3.24 0 00-3.25 3.24.5.5 0 01-.5.49.49.49 0 01-.5-.49A4.25 4.25 0 0121.48 19a.5.5 0 01.5.5.5.5 0 01-.5.5z" fill="#666d89" fill-rule="evenodd"/></svg>