<svg id="Star" xmlns="http://www.w3.org/2000/svg" viewBox="0 0 55 55"><defs><style>.cls-1{fill:#666d89;fill-rule:evenodd;}</style></defs><title>heart</title><path id="heart-2" class="cls-1" d="M41.44,30.19,30.38,41.12a3.06,3.06,0,0,1-4.29,0L15,30.19a9.42,9.42,0,0,1,0-13.41,9.65,9.65,0,0,1,13.21-.28,9.64,9.64,0,0,1,13.2.28A9.4,9.4,0,0,1,41.44,30.19ZM40,18.19A7.61,7.61,0,0,0,29.59,18l-1.35,1.22L26.88,18a7.61,7.61,0,0,0-10.42.22,7.44,7.44,0,0,0,0,10.59L27.52,39.71a1,1,0,0,0,1.43,0L40,28.78A7.42,7.42,0,0,0,40,18.19ZM21.48,20h0a3.24,3.24,0,0,0-3.25,3.24h0a.5.5,0,0,1-.5.49.49.49,0,0,1-.5-.49A4.25,4.25,0,0,1,21.48,19h0a.5.5,0,0,1,.5.5A.5.5,0,0,1,21.48,20Z"/></svg>