<?xml-stylesheet type="text/css" href="../../style.css" ?>
<svg id="Layer_1" data-name="Layer 1" xmlns="http://www.w3.org/2000/svg" viewBox="0 0 30 30"><defs></defs><title>LinkedIn</title><path id="LinkedIn" class="linkedin-icon" d="M8.45,21.53h2.83V12.42H8.45ZM9.88,8.47a1.42,1.42,0,1,0,0,2.83,1.42,1.42,0,1,0,0-2.83Zm8.48,3.74a3.27,3.27,0,0,0-2.81,1.48h-.06l-.13-1.27H12.9c0,.82.08,1.77.08,2.91v6.2h2.83V16.28a2.15,2.15,0,0,1,.09-.71,1.56,1.56,0,0,1,1.46-1.06c1,0,1.43.8,1.43,2v5.05h2.83V16.15C21.62,13.46,20.23,12.21,18.36,12.21Z"/></svg>