<svg xmlns="http://www.w3.org/2000/svg" viewBox="0 0 55 55"><path d="M41.39 14.53A8.54 8.54 0 0035.45 12a6.54 6.54 0 00-4.67 1.88l-4.87 4.9-10.39 10.43a4.06 4.06 0 00-1 1.7l-2.34 8.51a5.84 5.84 0 00-.16 1A3.5 3.5 0 0015.5 44a6.44 6.44 0 001.16-.19l8.48-2.23a4 4 0 001.7-1l15.27-15.44c2.77-2.78 2.46-7.44-.72-10.61zM28 35.75a8.09 8.09 0 00-.71-2.63l9.45-9.45a4.86 4.86 0 01-1 5L28 36.49a6.09 6.09 0 000-.74zm-1.22-3.54a8.44 8.44 0 00-1.32-1.73 8.89 8.89 0 00-2-1.49L33 19.45a7.22 7.22 0 012.1 1.44 6.93 6.93 0 011.28 1.77zm-4.3-3.7a8.23 8.23 0 00-2.87-.6l7.7-7.76a4.8 4.8 0 014.59-1.06zm-6.31 13.31a4.87 4.87 0 01-.68.13 1.51 1.51 0 01-1.49-1.5 4.84 4.84 0 01.1-.56l1.05-3.82a4.76 4.76 0 014.74 4.78zm4.7-1.23a5.58 5.58 0 00-1.67-3.84 5.68 5.68 0 00-3.76-1.7l1-3.61a2 2 0 01.39-.68c2-1.44 5.09-1 7.24 1.13s2.61 5.59.87 7.57a2.83 2.83 0 01-.36.16zm19.82-16.87L39 25.42v-.67a8.83 8.83 0 00-8.47-7.84l1.66-1.67A4.54 4.54 0 0135.45 14 6.53 6.53 0 0140 16a6.6 6.6 0 012 4.16 4.59 4.59 0 01-1.31 3.56z" fill="#666d89" fill-rule="evenodd"/></svg>