<svg id="Star" xmlns="http://www.w3.org/2000/svg" viewBox="0 0 55 55"><defs><style>.cls-1{fill:#666d89;fill-rule:evenodd;}</style></defs><title>pen</title><path id="pen" class="cls-1" d="M41.39,14.53A8.54,8.54,0,0,0,35.45,12a6.54,6.54,0,0,0-4.67,1.88l-4.87,4.9,0,0s0,0,0,0h0L15.52,29.21a4.06,4.06,0,0,0-1,1.7l-2.34,8.51a5.84,5.84,0,0,0-.16,1A3.5,3.5,0,0,0,15.5,44a6.44,6.44,0,0,0,1.16-.19l8.48-2.23a4,4,0,0,0,1.7-1L42.11,25.14C44.88,22.36,44.57,17.7,41.39,14.53ZM28,35.75a8.09,8.09,0,0,0-.71-2.63l9.45-9.45a4.86,4.86,0,0,1-1,5l0,0h0L28,36.49A6.09,6.09,0,0,0,28,35.75Zm-1.22-3.54a8.44,8.44,0,0,0-1.32-1.73,8.89,8.89,0,0,0-2-1.49L33,19.45a7.22,7.22,0,0,1,2.1,1.44,6.93,6.93,0,0,1,1.28,1.77Zm-4.3-3.7a8.23,8.23,0,0,0-2.87-.6l7.7-7.76a4.8,4.8,0,0,1,4.59-1.06ZM16.17,41.82a4.87,4.87,0,0,1-.68.13A1.51,1.51,0,0,1,14,40.45a4.84,4.84,0,0,1,.1-.56l1.05-3.82a4.76,4.76,0,0,1,4.74,4.78Zm4.7-1.23a5.58,5.58,0,0,0-1.67-3.84,5.68,5.68,0,0,0-3.76-1.7l1-3.61a2,2,0,0,1,.39-.68c2-1.44,5.09-1,7.24,1.13s2.61,5.59.87,7.57a2.83,2.83,0,0,1-.36.16ZM40.69,23.72,39,25.42c0-.23,0-.44,0-.67a8.83,8.83,0,0,0-8.47-7.84l1.66-1.67A4.54,4.54,0,0,1,35.45,14,6.53,6.53,0,0,1,40,16a6.6,6.6,0,0,1,2,4.16A4.59,4.59,0,0,1,40.69,23.72Z"/></svg>