<svg id="Star" xmlns="http://www.w3.org/2000/svg" viewBox="0 0 55 55"><defs><style>.cls-1{fill:#666d89;fill-rule:evenodd;}</style></defs><title>phone</title><path id="phone" class="cls-1" d="M36,44H20a3,3,0,0,1-3-3V15a3,3,0,0,1,3-3H36a3,3,0,0,1,3,3V41A3,3,0,0,1,36,44ZM37,15a1,1,0,0,0-1-1H20a1,1,0,0,0-1,1v2H37Zm0,3H19V38H37ZM37,39H19v2a1,1,0,0,0,1,1H36a1,1,0,0,0,1-1Zm-8.5,2h-1a.5.5,0,0,1,0-1h1a.5.5,0,0,1,0,1ZM26.5,15h3a.5.5,0,0,1,.5.5.5.5,0,0,1-.5.5h-3a.5.5,0,0,1-.5-.5A.5.5,0,0,1,26.5,15Z"/></svg>