<svg xmlns="http://www.w3.org/2000/svg" viewBox="0 0 55 55"><path data-name="star" d="M43.9 23.68a2.31 2.31 0 00-1.84-1.51l-8.32-1.23-3.61-7.49a2.34 2.34 0 00-4.18 0l-3.61 7.49L14 22.17a2.31 2.31 0 00-1.84 1.51 2.2 2.2 0 00.56 2.32l6.09 6-1.41 8.46a2.21 2.21 0 00.94 2.2 2.39 2.39 0 001.33.41 2.33 2.33 0 001.12-.28l7.21-3.9 7.25 3.9a2.33 2.33 0 001.12.28 2.39 2.39 0 001.33-.41 2.23 2.23 0 00.94-2.2L37.27 32l6.09-6a2.2 2.2 0 00.54-2.32zm-8.28 6.79A2.2 2.2 0 0035 32.4l1.42 8.42-7.25-3.89a2.38 2.38 0 00-2.24 0l-7.25 3.89 1.42-8.42a2.2 2.2 0 00-.63-1.93l-6.09-6.08 8.31-1.23a2.34 2.34 0 001.75-1.27L28 14.4l3.61 7.49a2.32 2.32 0 001.74 1.27l8.32 1.23z" fill="#666d89" fill-rule="evenodd"/></svg>