<?xml-stylesheet type="text/css" href="../../style.css" ?>
<svg id="Layer_1" data-name="Layer 1" xmlns="http://www.w3.org/2000/svg" viewBox="0 0 30 30"><defs></defs><title>Twitter</title><path id="Twitter" class="twitter-icon" d="M21.62,10.89a5.38,5.38,0,0,1-1.56.43,2.75,2.75,0,0,0,1.2-1.5,5.47,5.47,0,0,1-1.73.65,2.72,2.72,0,0,0-4.7,1.86,2.51,2.51,0,0,0,.07.62,7.68,7.68,0,0,1-5.6-2.84,2.68,2.68,0,0,0-.37,1.37,2.71,2.71,0,0,0,1.21,2.26,2.54,2.54,0,0,1-1.23-.34v0a2.71,2.71,0,0,0,2.18,2.66,2.84,2.84,0,0,1-.72.1,2.94,2.94,0,0,1-.51-.05A2.74,2.74,0,0,0,12.4,18,5.44,5.44,0,0,1,9,19.2a4.49,4.49,0,0,1-.64,0,7.73,7.73,0,0,0,11.9-6.51c0-.12,0-.24,0-.35A5.48,5.48,0,0,0,21.62,10.89Z"/></svg>